<?xml version="1.0" encoding="utf-8"?>
<!-- Generator: Adobe Illustrator 23.0.6, SVG Export Plug-In . SVG Version: 6.00 Build 0)  -->
<svg version="1.1" id="Layer_1" xmlns="http://www.w3.org/2000/svg" xmlns:xlink="http://www.w3.org/1999/xlink" x="0px" y="0px"
	 viewBox="0 0 300 300" style="enable-background:new 0 0 300 300;" xml:space="preserve">
<style type="text/css">
	.st0{fill:#FF0000;}
	.st1{fill:#FF7BAC;}
	.st2{fill:#FFFFFF;}
	.st3{fill:#FFFFFF;stroke:#FFFFFF;stroke-width:4;stroke-miterlimit:10;}
</style>
<g>
	<circle class="st0" cx="150" cy="150" r="148"/>
	<path class="st1" d="M150,4c39,0,75.66,15.19,103.24,42.76C280.81,74.34,296,111,296,150c0,39-15.19,75.66-42.76,103.24
		C225.66,280.81,189,296,150,296c-39,0-75.66-15.19-103.24-42.76C19.19,225.66,4,189,4,150c0-39,15.19-75.66,42.76-103.24
		S111,4,150,4 M150,0L150,0C67.16,0,0,67.16,0,150v0c0,82.84,67.16,150,150,150h0c82.84,0,150-67.16,150-150v0
		C300,67.16,232.84,0,150,0L150,0z"/>
</g>
<g>
	<path class="st2" d="M201,118L201,118c-6.08,0-11,4.92-11,11v119c0,6.08,4.92,11,11,11h0c6.08,0,11-4.92,11-11V129
		C212,122.92,207.08,118,201,118z"/>
</g>
<g>
	<path class="st2" d="M101,118L101,118c-6.08,0-11,4.92-11,11v119c0,6.08,4.92,11,11,11h0c6.08,0,11-4.92,11-11V129
		C112,122.92,107.08,118,101,118z"/>
</g>
<ellipse class="st2" cx="101.5" cy="104.5" rx="39.5" ry="42.5"/>
<path class="st2" d="M201.76,136h-0.52c-12.28,0-22.24-9.96-22.24-22.24v-9.52C179,91.96,188.96,82,201.24,82h0.52
	c12.28,0,22.24,9.96,22.24,22.24v9.52C224,126.04,214.04,136,201.76,136z"/>
<line class="st3" x1="182" y1="64" x2="181" y2="114"/>
<line class="st3" x1="222.62" y1="65.53" x2="221.62" y2="115.53"/>
<line class="st3" x1="195.62" y1="61.53" x2="194.62" y2="111.53"/>
<line class="st3" x1="209.62" y1="61.53" x2="208.62" y2="111.53"/>
</svg>
