<?xml version="1.0" encoding="utf-8"?>
<!-- Generator: Adobe Illustrator 23.0.6, SVG Export Plug-In . SVG Version: 6.00 Build 0)  -->
<svg version="1.1" id="Layer_1" xmlns="http://www.w3.org/2000/svg" xmlns:xlink="http://www.w3.org/1999/xlink" x="0px" y="0px"
	 viewBox="0 0 130 152" style="enable-background:new 0 0 130 152;" xml:space="preserve">
<style type="text/css">
	.st0{fill:#FF0000;}
	.st1{fill:none;stroke:#42210B;stroke-width:10;stroke-miterlimit:10;}
	.st2{fill:none;stroke:#FFFFFF;stroke-width:6;stroke-miterlimit:10;}
	.st3{fill:#42210B;}
</style>
<g>
	<rect x="15.5" y="105.5" class="st0" width="99" height="46"/>
	<path class="st0" d="M114,106v45H16v-45H114 M115,105H15v47h100V105L115,105z"/>
</g>
<g>
	<polygon class="st0" points="15.63,104.5 64.85,30.9 114.06,104.5 	"/>
	<path class="st0" d="M64.85,31.8l24.24,36.26L113.13,104H64.85H16.57l24.03-35.94L64.85,31.8 M64.85,30L39.77,67.5L14.7,105h50.15
		H115L89.92,67.5L64.85,30L64.85,30z"/>
</g>
<g>
	<path class="st1" d="M4,101c19-29,39-57,58.05-85.64"/>
</g>
<path class="st1" d="M127,104c-3-4-6-8-9-13c-16-26-33-50-50.34-76"/>
<line class="st2" x1="65.5" y1="89.5" x2="65" y2="141"/>
<line class="st2" x1="90.87" y1="114.91" x2="39.36" y2="114.91"/>
<g>
	<polygon class="st3" points="55.79,16.45 64.8,1 73.67,16.53 	"/>
	<path class="st3" d="M64.79,2l4.01,7.01l4.01,7.01l-8.08-0.04l-8.08-0.04l4.07-6.98L64.79,2 M64.8,0l-4.94,8.47l-4.94,8.47
		l9.81,0.04l9.81,0.04l-4.87-8.52L64.8,0L64.8,0z"/>
</g>
</svg>
