<?xml version="1.0" encoding="utf-8"?>
<!-- Generator: Adobe Illustrator 23.0.6, SVG Export Plug-In . SVG Version: 6.00 Build 0)  -->
<svg version="1.1" id="Layer_1" xmlns="http://www.w3.org/2000/svg" xmlns:xlink="http://www.w3.org/1999/xlink" x="0px" y="0px"
	 viewBox="0 0 96 84" style="enable-background:new 0 0 96 84;" xml:space="preserve">
<style type="text/css">
	.st0{fill:#F2F2F2;}
</style>
<g>
	<path class="st0" d="M57.5,84L57.5,84C36.24,84,19,66.76,19,45.5v-7C19,17.24,36.24,0,57.5,0h0C78.76,0,96,18,96,38.5L85,54
		C71,69,78.76,84,57.5,84z"/>
</g>
<g>
	<path class="st0" d="M38.5,83.59L38.5,83.59c21.26,0,38.5-17.24,38.5-38.5v-7c0-21.26-17.24-38.5-38.5-38.5h0
		c-21.26,0-38.5,18-38.5,38.5l11,15.5C25,68.59,17.24,83.59,38.5,83.59z"/>
</g>
</svg>
