<?xml version="1.0" encoding="utf-8"?>
<!-- Generator: Adobe Illustrator 23.0.6, SVG Export Plug-In . SVG Version: 6.00 Build 0)  -->
<svg version="1.1" id="Layer_1" xmlns="http://www.w3.org/2000/svg" xmlns:xlink="http://www.w3.org/1999/xlink" x="0px" y="0px"
	 viewBox="0 0 271.56 224.89" style="enable-background:new 0 0 271.56 224.89;" xml:space="preserve">
<style type="text/css">
	.st0{fill:#FF0000;stroke:#FF0000;stroke-miterlimit:10;}
	.st1{fill:#490505;stroke:#FF0000;stroke-miterlimit:10;}
	.st2{display:none;fill:#FFFFFF;stroke:#000000;stroke-miterlimit:10;}
	.st3{fill:#FFFFFF;stroke:#FF0000;stroke-miterlimit:10;}
	.st4{fill:#F15A24;stroke:#FF0000;stroke-width:6;stroke-miterlimit:10;}
	.st5{fill:none;stroke:#FF0000;stroke-width:6;stroke-miterlimit:10;}
	.st6{fill:none;stroke:#F15A24;stroke-width:2;stroke-miterlimit:10;}
	.st7{fill:none;stroke:#FFFFFF;stroke-miterlimit:10;}
	.st8{fill:#FFFFFF;}
</style>
<path class="st0" d="M143.07,204.12h-12.8c-29.33,0-53.11-23.78-53.11-53.11v-15.79c0-29.33,23.78-53.11,53.11-53.11h12.8
	c29.33,0,53.11,23.78,53.11,53.11v15.79C196.18,180.34,172.4,204.12,143.07,204.12z"/>
<rect x="77.15" y="151.01" class="st0" width="20.85" height="44.77"/>
<rect x="169.96" y="151.01" class="st0" width="26.22" height="50.55"/>
<path class="st0" d="M67.66,155.58L67.66,155.58c-1.54,3.88-5.93,5.77-9.81,4.23L9.1,140.45c-3.88-1.54-5.77-5.93-4.23-9.81l0,0
	c1.54-3.88,5.93-5.77,9.81-4.23l48.74,19.36C67.3,147.31,69.2,151.7,67.66,155.58z"/>
<rect x="63.33" y="189.56" class="st1" width="146.67" height="20.44"/>
<rect x="63.33" y="189.56" class="st2" width="146.67" height="20.44"/>
<path class="st0" d="M202.16,155.58L202.16,155.58c1.54,3.88,5.93,5.77,9.81,4.23l48.74-19.36c3.88-1.54,5.77-5.93,4.23-9.81v0
	c-1.54-3.88-5.93-5.77-9.81-4.23l-48.74,19.36C202.52,147.31,200.62,151.7,202.16,155.58z"/>
<path class="st0" d="M75.71,102.35L75.71,102.35c-2.71,3.17-7.48,3.54-10.65,0.83l-39.84-34.1c-3.17-2.71-3.54-7.48-0.83-10.65l0,0
	c2.71-3.17,7.48-3.54,10.65-0.83l39.84,34.1C78.05,94.42,78.42,99.18,75.71,102.35z"/>
<path class="st0" d="M193.23,102.35L193.23,102.35c2.71,3.17,7.48,3.54,10.65,0.83l39.84-34.1c3.17-2.71,3.54-7.48,0.83-10.65l0,0
	c-2.71-3.17-7.48-3.54-10.65-0.83l-39.84,34.1C190.88,94.42,190.51,99.18,193.23,102.35z"/>
<path class="st0" d="M114.89,71.47L114.89,71.47c-3.61,2.09-8.23,0.85-10.32-2.77L78.35,23.29c-2.09-3.61-0.85-8.23,2.77-10.32l0,0
	c3.61-2.09,8.23-0.85,10.32,2.77l26.22,45.42C119.74,64.77,118.5,69.39,114.89,71.47z"/>
<path class="st0" d="M153.07,71.47L153.07,71.47c3.61,2.09,8.23,0.85,10.32-2.77l26.22-45.42c2.09-3.61,0.85-8.23-2.77-10.32l0,0
	c-3.61-2.09-8.23-0.85-10.32,2.77L150.3,61.15C148.22,64.77,149.46,69.39,153.07,71.47z"/>
<path class="st3" d="M136.39,190L136.39,190c-6.78,0-12.28-5.5-12.28-12.28V144.5c0-6.78,5.5-12.28,12.28-12.28h0
	c6.78,0,12.28,5.5,12.28,12.28v33.22C148.67,184.5,143.17,190,136.39,190z"/>
<line class="st4" x1="101.11" y1="127.78" x2="101.56" y2="183.78"/>
<line class="st5" x1="157.56" y1="122.44" x2="158" y2="178.46"/>
<line class="st6" x1="136.67" y1="94.44" x2="169.96" y2="189.56"/>
<line class="st6" x1="136.67" y1="94.44" x2="101.33" y2="189.56"/>
<line class="st7" x1="14.44" y1="130" x2="59.33" y2="147.33"/>
<line class="st7" x1="198.44" y1="92.22" x2="233.56" y2="61.56"/>
<line class="st7" x1="210" y1="146.89" x2="254.44" y2="130"/>
<line class="st7" x1="153.31" y1="60.67" x2="180.22" y2="17.11"/>
<line class="st7" x1="90.44" y1="18.44" x2="111.78" y2="55.33"/>
<line class="st7" x1="34.44" y1="61.11" x2="69.56" y2="90"/>
<g>
	<g>
		<path class="st8" d="M118.05,89.04c-15.71,3.38-25.78,16.65-30.57,31.26c-1.47,4.49-2.5,9.11-3.33,13.76
			c-0.33,1.89,2.56,2.7,2.89,0.8c2.51-14.15,7.5-29.4,19.96-37.89c3.59-2.45,7.59-4.12,11.83-5.03
			C120.74,91.53,119.94,88.64,118.05,89.04L118.05,89.04z"/>
	</g>
</g>
<g>
	<g>
		<path class="st8" d="M183.25,125.95c3.49,19.71,5.8,39.62,6.93,59.61c0.11,1.92,3.11,1.93,3,0c-1.14-20.25-3.49-40.43-7.04-60.41
			C185.8,123.25,182.91,124.06,183.25,125.95L183.25,125.95z"/>
	</g>
</g>
</svg>
