<?xml version="1.0" encoding="utf-8"?>
<!-- Generator: Adobe Illustrator 23.0.6, SVG Export Plug-In . SVG Version: 6.00 Build 0)  -->
<svg version="1.1" id="Layer_1" xmlns="http://www.w3.org/2000/svg" xmlns:xlink="http://www.w3.org/1999/xlink" x="0px" y="0px"
	 viewBox="0 0 237 226" style="enable-background:new 0 0 237 226;" xml:space="preserve">
<style type="text/css">
	.st0{fill:#29ABE2;}
	.st1{fill:#0071BC;}
	.st2{fill:#FF7BAC;}
	.st3{fill:#FF00FF;}
	.st4{fill:#22B573;}
	.st5{fill:#009245;}
	.st6{fill:#FBB03B;}
	.st7{fill:#F15A24;}
	.st8{fill:#7AC943;}
</style>
<g>
	<path class="st0" d="M31,195.5c-15.71,0-28.5-12.79-28.5-28.5s12.79-28.5,28.5-28.5h174c15.71,0,28.5,12.79,28.5,28.5
		s-12.79,28.5-28.5,28.5H31z"/>
	<path class="st1" d="M205,139c15.44,0,28,12.56,28,28c0,15.44-12.56,28-28,28H31c-15.44,0-28-12.56-28-28c0-15.44,12.56-28,28-28
		H205 M205,138H31c-16.02,0-29,12.98-29,29v0c0,16.02,12.98,29,29,29h174c16.02,0,29-12.98,29-29v0C234,150.98,221.02,138,205,138
		L205,138z"/>
</g>
<g>
	<path class="st2" d="M64,147.5c-15.71,0-28.5-12.79-28.5-28.5S48.29,90.5,64,90.5h106c15.71,0,28.5,12.79,28.5,28.5
		s-12.79,28.5-28.5,28.5H64z"/>
	<path class="st3" d="M170,91c15.44,0,28,12.56,28,28s-12.56,28-28,28H64c-15.44,0-28-12.56-28-28s12.56-28,28-28H170 M170,90H64
		c-16.02,0-29,12.98-29,29v0c0,16.02,12.98,29,29,29h106c16.02,0,29-12.98,29-29v0C199,102.98,186.02,90,170,90L170,90z"/>
</g>
<g>
	<path class="st4" d="M90,100.5c-15.71,0-28.5-12.79-28.5-28.5S74.29,43.5,90,43.5h53c15.71,0,28.5,12.79,28.5,28.5
		s-12.79,28.5-28.5,28.5H90z"/>
	<path class="st5" d="M143,44c15.44,0,28,12.56,28,28c0,15.44-12.56,28-28,28H90c-15.44,0-28-12.56-28-28c0-15.44,12.56-28,28-28
		H143 M143,43H90c-16.02,0-29,12.98-29,29v0c0,16.02,12.98,29,29,29h53c16.02,0,29-12.98,29-29v0C172,55.98,159.02,43,143,43L143,43
		z"/>
</g>
<g>
	<path class="st6" d="M114,59.5c-15.71,0-28.5-12.79-28.5-28.5S98.29,2.5,114,2.5h6c15.71,0,28.5,12.79,28.5,28.5
		S135.71,59.5,120,59.5H114z"/>
	<path class="st7" d="M120,3c15.44,0,28,12.56,28,28c0,15.44-12.56,28-28,28h-6c-15.44,0-28-12.56-28-28c0-15.44,12.56-28,28-28H120
		 M120,2h-6C97.98,2,85,14.98,85,31v0c0,16.02,12.98,29,29,29h6c16.02,0,29-12.98,29-29v0C149,14.98,136.02,2,120,2L120,2z"/>
</g>
<g>
	<path class="st8" d="M160,223L160,223c-19.88,0-36-16.12-36-36v0c0-19.88,16.12-36,36-36h0c19.88,0,36,16.12,36,36v0
		C196,206.88,179.88,223,160,223z"/>
</g>
</svg>
