<?xml version="1.0" encoding="utf-8"?>
<!-- Generator: Adobe Illustrator 23.0.6, SVG Export Plug-In . SVG Version: 6.00 Build 0)  -->
<svg version="1.1" id="Layer_1" xmlns="http://www.w3.org/2000/svg" xmlns:xlink="http://www.w3.org/1999/xlink" x="0px" y="0px"
	 viewBox="0 0 319 165" style="enable-background:new 0 0 319 165;" xml:space="preserve">
<style type="text/css">
	.st0{fill:#F15A29;stroke:#FFFFFF;stroke-miterlimit:10;}
	.st1{fill:#F15A29;}
	.st2{fill:#ED1C24;stroke:#ED1C24;stroke-miterlimit:10;}
</style>
<path class="st0" d="M279.88,98H81.15c-9.72,0-17.6-7.88-17.6-17.6v0c0-9.72,7.88-17.6,17.6-17.6h198.73c9.72,0,17.6,7.88,17.6,17.6
	v0C297.48,90.12,289.6,98,279.88,98z"/>
<path class="st1" d="M28.31,84.83L17.76,66.56c-6.35-11-2.58-25.07,8.42-31.42l0,0c11-6.35,25.07-2.58,31.42,8.42l10.55,18.27
	c6.35,11,2.58,25.07-8.42,31.42l0,0C48.73,99.6,34.66,95.83,28.31,84.83z"/>
<rect y="88" class="st2" width="319" height="50"/>
<rect class="st2" width="33" height="98"/>
<rect y="129" class="st2" width="16.5" height="36"/>
<rect x="311" y="129" class="st2" width="8" height="36"/>
</svg>
