<?xml version="1.0" encoding="utf-8"?>
<!-- Generator: Adobe Illustrator 24.3.0, SVG Export Plug-In . SVG Version: 6.00 Build 0)  -->
<svg version="1.1" id="Layer_1" xmlns="http://www.w3.org/2000/svg" xmlns:xlink="http://www.w3.org/1999/xlink" x="0px" y="0px"
	 viewBox="0 0 160 160" style="enable-background:new 0 0 160 160;" xml:space="preserve">
<style type="text/css">
	.st0{fill:#DF00C2;}
	.st1{fill:#FFFFFF;}
</style>
<g>
	<rect class="st0" width="160" height="160"/>
</g>
<path class="st1" d="M149,18H11c-3.87,0-7-3.13-7-7v0c0-3.87,3.13-7,7-7h138c3.87,0,7,3.13,7,7v0C156,14.87,152.87,18,149,18z"/>
<path class="st1" d="M149,154H11c-3.87,0-7-3.13-7-7l0,0c0-3.87,3.13-7,7-7h138c3.87,0,7,3.13,7,7l0,0
	C156,150.87,152.87,154,149,154z"/>
<path class="st1" d="M86.88,8v143.55c0,3.87-3.13,7-7,7h0c-3.87,0-7-3.13-7-7V8c0-3.87,3.13-7,7-7h0C83.75,1,86.88,4.13,86.88,8z"/>
<path class="st1" d="M141.74,36.71L30.92,127.94c-2.98,2.46-7.4,2.03-9.85-0.96l0,0c-2.46-2.98-2.03-7.4,0.96-9.85L132.85,25.9
	c2.98-2.46,7.4-2.03,9.85,0.96v0C145.16,29.84,144.73,34.25,141.74,36.71z"/>
</svg>
