<?xml version="1.0" encoding="utf-8"?>
<!-- Generator: Adobe Illustrator 24.3.0, SVG Export Plug-In . SVG Version: 6.00 Build 0)  -->
<svg version="1.1" id="Layer_1" xmlns="http://www.w3.org/2000/svg" xmlns:xlink="http://www.w3.org/1999/xlink" x="0px" y="0px"
	 viewBox="0 0 16 16" style="enable-background:new 0 0 16 16;" xml:space="preserve">
<style type="text/css">
	.st0{fill:#8B008B;}
	.st1{fill:#FFFFFF;}
</style>
<g>
	<polygon class="st0" points="9.38,11.65 10.77,15.29 5.19,15.32 -0.38,15.35 3.81,11.68 8,8 	"/>
</g>
<g>
	<polygon class="st0" points="6.75,3.68 5.16,0.12 11.1,-0.4 17.03,-0.92 12.69,3.16 8.34,7.24 	"/>
</g>
<g>
	<rect x="0" y="15" class="st1" width="16" height="1"/>
	<polygon points="16,15 0,15 0,16 16,16 16,15 	"/>
</g>
<g>
	<rect class="st1" width="16" height="1"/>
	<polygon points="16,0 0,0 0,1 16,1 16,0 	"/>
</g>
<g>
	<path class="st1" d="M8.5,15.5L8.5,15.5z"/>
	<polygon points="9,0 8,0 8,16 9,16 9,0 	"/>
</g>
<g>
	<path class="st1" d="M-0.81,16.48L-0.81,16.48z"/>
	<polygon points="17.43,-1.58 -1.51,16.46 -0.82,17.19 18.12,-0.85 17.43,-1.58 	"/>
</g>
</svg>
